<?xml version="1.0" encoding="UTF-8" standalone="no" ?>
<!DOCTYPE svg PUBLIC "-//W3C//DTD SVG 1.1//EN" "http://www.w3.org/Graphics/SVG/1.1/DTD/svg11.dtd">
<svg xmlns="http://www.w3.org/2000/svg" xmlns:xlink="http://www.w3.org/1999/xlink" version="1.1" width="101.13" height="101.13" xml:space="preserve">
<desc>Created with Fabric.js 1.6.0-rc.1</desc>
<defs></defs>
<g style="stroke: none; stroke-width: 1; stroke-dasharray: none; stroke-linecap: butt; stroke-linejoin: miter; stroke-miterlimit: 10; fill: none; fill-rule: nonzero; opacity: 1;" transform="translate(10 10) scale(0.19 0.19)" >
  <path d="M 94.077 69.152 h 237.846 c 13.765 0 24.925 11.159 24.925 24.925 v 237.846 c 0 13.765 -11.159 24.925 -24.925 24.925 H 94.077 c -13.765 0 -24.925 -11.159 -24.925 -24.925 V 94.077 C 69.152 80.312 80.311 69.152 94.077 69.152 z" style="stroke: none; stroke-width: 1; stroke-dasharray: none; stroke-linecap: butt; stroke-linejoin: miter; stroke-miterlimit: 10; fill: #02b6da; fill-rule: nonzero; opacity: 1;" transform=" matrix(1 0 0 1 0 0) " stroke-linecap="round" />
  <path d="M 305.742 69.152 H 94.077 c -13.765 0 -24.925 11.159 -24.925 24.925 v 237.846 c 0 13.765 11.159 24.925 24.925 24.925 h 37.611 L 305.742 69.152 z" style="stroke: none; stroke-width: 1; stroke-dasharray: none; stroke-linecap: butt; stroke-linejoin: miter; stroke-miterlimit: 10; fill: #4a44f5; fill-rule: nonzero; opacity: 1;" transform=" matrix(1 0 0 1 0 0) " stroke-linecap="round" />
  <path d="M 120.238 97.974 c -5.523 0 -10 -4.477 -10 -10 V 10 c 0 -5.523 4.477 -10 10 -10 s 10 4.477 10 10 v 77.974 C 130.238 93.497 125.761 97.974 120.238 97.974 z" style="stroke: none; stroke-width: 1; stroke-dasharray: none; stroke-linecap: butt; stroke-linejoin: miter; stroke-miterlimit: 10; fill: #fffff5; fill-rule: nonzero; opacity: 1;" transform=" matrix(1 0 0 1 0 0) " stroke-linecap="round" />
  <path d="M 166.619 97.974 c -5.523 0 -10 -4.477 -10 -10 V 10 c 0 -5.523 4.477 -10 10 -10 s 10 4.477 10 10 v 77.974 C 176.619 93.497 172.142 97.974 166.619 97.974 z" style="stroke: none; stroke-width: 1; stroke-dasharray: none; stroke-linecap: butt; stroke-linejoin: miter; stroke-miterlimit: 10; fill: #fffff5; fill-rule: nonzero; opacity: 1;" transform=" matrix(1 0 0 1 0 0) " stroke-linecap="round" />
  <path d="M 213 97.974 c -5.523 0 -10 -4.477 -10 -10 V 10 c 0 -5.523 4.477 -10 10 -10 s 10 4.477 10 10 v 77.974 C 223 93.497 218.523 97.974 213 97.974 z" style="stroke: none; stroke-width: 1; stroke-dasharray: none; stroke-linecap: butt; stroke-linejoin: miter; stroke-miterlimit: 10; fill: #fffff5; fill-rule: nonzero; opacity: 1;" transform=" matrix(1 0 0 1 0 0) " stroke-linecap="round" />
  <path d="M 259.38 97.974 c -5.523 0 -10 -4.477 -10 -10 V 10 c 0 -5.523 4.477 -10 10 -10 s 10 4.477 10 10 v 77.974 C 269.38 93.497 264.903 97.974 259.38 97.974 z" style="stroke: none; stroke-width: 1; stroke-dasharray: none; stroke-linecap: butt; stroke-linejoin: miter; stroke-miterlimit: 10; fill: #fffff5; fill-rule: nonzero; opacity: 1;" transform=" matrix(1 0 0 1 0 0) " stroke-linecap="round" />
  <path d="M 305.761 97.974 c -5.523 0 -10 -4.477 -10 -10 V 10 c 0 -5.523 4.477 -10 10 -10 s 10 4.477 10 10 v 77.974 C 315.761 93.497 311.284 97.974 305.761 97.974 z" style="stroke: none; stroke-width: 1; stroke-dasharray: none; stroke-linecap: butt; stroke-linejoin: miter; stroke-miterlimit: 10; fill: #fffff5; fill-rule: nonzero; opacity: 1;" transform=" matrix(1 0 0 1 0 0) " stroke-linecap="round" />
  <path d="M 120.238 426 c -5.523 0 -10 -4.477 -10 -10 v -77.973 c 0 -5.523 4.477 -10 10 -10 s 10 4.477 10 10 V 416 C 130.238 421.523 125.761 426 120.238 426 z" style="stroke: none; stroke-width: 1; stroke-dasharray: none; stroke-linecap: butt; stroke-linejoin: miter; stroke-miterlimit: 10; fill: #fffff5; fill-rule: nonzero; opacity: 1;" transform=" matrix(1 0 0 1 0 0) " stroke-linecap="round" />
  <path d="M 166.619 426 c -5.523 0 -10 -4.477 -10 -10 v -77.973 c 0 -5.523 4.477 -10 10 -10 s 10 4.477 10 10 V 416 C 176.619 421.523 172.142 426 166.619 426 z" style="stroke: none; stroke-width: 1; stroke-dasharray: none; stroke-linecap: butt; stroke-linejoin: miter; stroke-miterlimit: 10; fill: #fffff5; fill-rule: nonzero; opacity: 1;" transform=" matrix(1 0 0 1 0 0) " stroke-linecap="round" />
  <path d="M 213 426 c -5.523 0 -10 -4.477 -10 -10 v -77.973 c 0 -5.523 4.477 -10 10 -10 s 10 4.477 10 10 V 416 C 223 421.523 218.523 426 213 426 z" style="stroke: none; stroke-width: 1; stroke-dasharray: none; stroke-linecap: butt; stroke-linejoin: miter; stroke-miterlimit: 10; fill: #fffff5; fill-rule: nonzero; opacity: 1;" transform=" matrix(1 0 0 1 0 0) " stroke-linecap="round" />
  <path d="M 259.38 426 c -5.523 0 -10 -4.477 -10 -10 v -77.973 c 0 -5.523 4.477 -10 10 -10 s 10 4.477 10 10 V 416 C 269.38 421.523 264.903 426 259.38 426 z" style="stroke: none; stroke-width: 1; stroke-dasharray: none; stroke-linecap: butt; stroke-linejoin: miter; stroke-miterlimit: 10; fill: #fffff5; fill-rule: nonzero; opacity: 1;" transform=" matrix(1 0 0 1 0 0) " stroke-linecap="round" />
  <path d="M 305.761 426 c -5.523 0 -10 -4.477 -10 -10 v -77.973 c 0 -5.523 4.477 -10 10 -10 s 10 4.477 10 10 V 416 C 315.761 421.523 311.284 426 305.761 426 z" style="stroke: none; stroke-width: 1; stroke-dasharray: none; stroke-linecap: butt; stroke-linejoin: miter; stroke-miterlimit: 10; fill: #fffff5; fill-rule: nonzero; opacity: 1;" transform=" matrix(1 0 0 1 0 0) " stroke-linecap="round" />
  <path d="M 416 130.239 h -77.974 c -5.523 0 -10 -4.477 -10 -10 s 4.477 -10 10 -10 H 416 c 5.523 0 10 4.477 10 10 S 421.523 130.239 416 130.239 z" style="stroke: none; stroke-width: 1; stroke-dasharray: none; stroke-linecap: butt; stroke-linejoin: miter; stroke-miterlimit: 10; fill: #fffff5; fill-rule: nonzero; opacity: 1;" transform=" matrix(1 0 0 1 0 0) " stroke-linecap="round" />
  <path d="M 416 176.619 h -77.974 c -5.523 0 -10 -4.477 -10 -10 s 4.477 -10 10 -10 H 416 c 5.523 0 10 4.477 10 10 S 421.523 176.619 416 176.619 z" style="stroke: none; stroke-width: 1; stroke-dasharray: none; stroke-linecap: butt; stroke-linejoin: miter; stroke-miterlimit: 10; fill: #fffff5; fill-rule: nonzero; opacity: 1;" transform=" matrix(1 0 0 1 0 0) " stroke-linecap="round" />
  <path d="M 416 223 h -77.974 c -5.523 0 -10 -4.477 -10 -10 s 4.477 -10 10 -10 H 416 c 5.523 0 10 4.477 10 10 S 421.523 223 416 223 z" style="stroke: none; stroke-width: 1; stroke-dasharray: none; stroke-linecap: butt; stroke-linejoin: miter; stroke-miterlimit: 10; fill: #fffff5; fill-rule: nonzero; opacity: 1;" transform=" matrix(1 0 0 1 0 0) " stroke-linecap="round" />
  <path d="M 416 269.381 h -77.974 c -5.523 0 -10 -4.477 -10 -10 s 4.477 -10 10 -10 H 416 c 5.523 0 10 4.477 10 10 S 421.523 269.381 416 269.381 z" style="stroke: none; stroke-width: 1; stroke-dasharray: none; stroke-linecap: butt; stroke-linejoin: miter; stroke-miterlimit: 10; fill: #fffff5; fill-rule: nonzero; opacity: 1;" transform=" matrix(1 0 0 1 0 0) " stroke-linecap="round" />
  <path d="M 416 315.762 h -77.974 c -5.523 0 -10 -4.477 -10 -10 s 4.477 -10 10 -10 H 416 c 5.523 0 10 4.477 10 10 S 421.523 315.762 416 315.762 z" style="stroke: none; stroke-width: 1; stroke-dasharray: none; stroke-linecap: butt; stroke-linejoin: miter; stroke-miterlimit: 10; fill: #fffff5; fill-rule: nonzero; opacity: 1;" transform=" matrix(1 0 0 1 0 0) " stroke-linecap="round" />
  <path d="M 87.973 130.239 H 10 c -5.523 0 -10 -4.477 -10 -10 s 4.477 -10 10 -10 h 77.973 c 5.523 0 10 4.477 10 10 S 93.496 130.239 87.973 130.239 z" style="stroke: none; stroke-width: 1; stroke-dasharray: none; stroke-linecap: butt; stroke-linejoin: miter; stroke-miterlimit: 10; fill: #fffff5; fill-rule: nonzero; opacity: 1;" transform=" matrix(1 0 0 1 0 0) " stroke-linecap="round" />
  <path d="M 87.973 176.619 H 10 c -5.523 0 -10 -4.477 -10 -10 s 4.477 -10 10 -10 h 77.973 c 5.523 0 10 4.477 10 10 S 93.496 176.619 87.973 176.619 z" style="stroke: none; stroke-width: 1; stroke-dasharray: none; stroke-linecap: butt; stroke-linejoin: miter; stroke-miterlimit: 10; fill: #fffff5; fill-rule: nonzero; opacity: 1;" transform=" matrix(1 0 0 1 0 0) " stroke-linecap="round" />
  <path d="M 87.973 223 H 10 c -5.523 0 -10 -4.477 -10 -10 s 4.477 -10 10 -10 h 77.973 c 5.523 0 10 4.477 10 10 S 93.496 223 87.973 223 z" style="stroke: none; stroke-width: 1; stroke-dasharray: none; stroke-linecap: butt; stroke-linejoin: miter; stroke-miterlimit: 10; fill: #fffff5; fill-rule: nonzero; opacity: 1;" transform=" matrix(1 0 0 1 0 0) " stroke-linecap="round" />
  <path d="M 87.973 269.381 H 10 c -5.523 0 -10 -4.477 -10 -10 s 4.477 -10 10 -10 h 77.973 c 5.523 0 10 4.477 10 10 S 93.496 269.381 87.973 269.381 z" style="stroke: none; stroke-width: 1; stroke-dasharray: none; stroke-linecap: butt; stroke-linejoin: miter; stroke-miterlimit: 10; fill: #fffff5; fill-rule: nonzero; opacity: 1;" transform=" matrix(1 0 0 1 0 0) " stroke-linecap="round" />
  <path d="M 87.973 315.762 H 10 c -5.523 0 -10 -4.477 -10 -10 s 4.477 -10 10 -10 h 77.973 c 5.523 0 10 4.477 10 10 S 93.496 315.762 87.973 315.762 z" style="stroke: none; stroke-width: 1; stroke-dasharray: none; stroke-linecap: butt; stroke-linejoin: miter; stroke-miterlimit: 10; fill: #fffff5; fill-rule: nonzero; opacity: 1;" transform=" matrix(1 0 0 1 0 0) " stroke-linecap="round" />
  <rect x="159.22" y="159.22" rx="0" ry="0" width="107.55" height="107.55" style="stroke: none; stroke-width: 1; stroke-dasharray: none; stroke-linecap: butt; stroke-linejoin: miter; stroke-miterlimit: 10; fill: #fffff2; fill-rule: nonzero; opacity: 1;" transform=" matrix(1 0 0 1 0 0) "/>
</g>
</svg>